<?xml version="1.0" encoding="UTF-8"?>
<svg id="Layer_2" data-name="Layer 2" xmlns="http://www.w3.org/2000/svg" viewBox="0 0 803.61 203.09">
  <defs>
    <style>
      .cls-1 {
        fill: #1c1b17;
      }

      .cls-2 {
        fill: #ffc60e;
      }
    </style>
  </defs>
  <g id="Layer_1-2" data-name="Layer 1">
    <g>
      <g>
        <polygon class="cls-1" points="554.21 51.81 554.22 177.77 527.02 177.78 515.51 72.21 517.14 177.75 498.76 177.78 498.76 51.83 525.98 51.8 537.5 156.6 537.54 145.41 536.01 51.84 554.21 51.81"/>
        <path class="cls-1" d="M670.19,177.79l-39.03-.13c-2.45,0-4.56-2.29-5.82-4.22-2.38-3.64-3.66-7.95-3.66-12.47v-92.39c0-6.53,3.83-16.75,10.22-16.75l37.22-.02c6.85,0,10.4,10.47,10.4,17.04v92.1c-.01,6.01-2.91,15.3-9.33,16.84ZM656.18,159.46c3.44,0,5.42-3.61,5.32-7.14v-75.59c0-2.92-1.65-6.23-4.47-6.69h-12.31c-2.89.01-4.87,3.68-4.87,6.71v75.8c0,3.39,1.94,6.9,5.36,6.9h10.98Z"/>
        <path class="cls-1" d="M491.63,148.08l.13,29.69h-18.27s0-31.79,0-31.79c0-1.77-.61-3.29-1.53-4.64-.77-.87-1.69-1.59-2.91-1.59h-9.79s0,38.02,0,38.02l-18.24-.02V51.81s40.52.03,40.52.03c2.6,0,4.63,1.68,6.19,3.43,2.64,3.29,3.79,8.54,3.79,12.84l.02,50.95c-.18,5.85-1.09,11.09-4.17,16.07,2.61,3.85,4.24,8.1,4.26,12.96ZM473.49,115.5v-39.03c0-2.33-1.05-4.27-2.64-5.77-.63-.39-1.29-.65-2.06-.65l-9.53.03v52.14s9.48,0,9.48,0c.93,0,1.73-.45,2.39-1.04,1.41-1.55,2.36-3.32,2.36-5.68Z"/>
        <path class="cls-1" d="M414.57,138.56l-10.75-.05-1.75,39.27h-18.93s7.24-125.97,7.24-125.97h37.63s7.24,125.96,7.24,125.96h-18.93s-1.75-39.2-1.75-39.2ZM413.68,121.7l-2.12-51.82-4.73.04-2.11,51.78h8.97Z"/>
        <path class="cls-1" d="M596.36,51.84l18.26-.03-.04,108.89c0,4.71-1.73,11.27-4.97,14.57-1.13,1.14-2.62,2.48-4.41,2.48l-33.97-.05c-2.02,0-3.76-1.76-4.87-3.22-3-3.91-4.02-8.55-4.37-13.53V51.82s18.03-.02,18.03-.02v100.76c0,3.2,2.13,6.67,4.76,6.67h6.89c2.5,0,4.7-3.31,4.7-6.42V51.84Z"/>
        <path class="cls-1" d="M794.31,177.78l-30.4-.05c-1.35,0-2.56-.89-3.48-1.7-4.22-3.69-5.9-11.02-6.05-16.72l-.02-28.79h18.22s.04,24.06.04,24.06c.25,1.93,1,3.81,2.95,4.36,2.51.7,5.37.8,7.87-.1,1.24-.45,1.93-2.2,1.93-3.51l-.04-14.81c-.02-7.87-7.49-15.83-12.58-21.44l-9.37-10.34c-2.23-2.46-3.95-5.16-5.43-8.14-1.58-3.19-2.52-6.51-2.52-10.12l.02-19.46c0-5.44,1.4-11.58,4.67-15.88,1.27-1.67,3.19-3.32,5.5-3.32h27.6c2.55,0,4.55,1.69,5.98,3.63,2.65,3.61,3.66,7.76,4.36,12.27l.05,31.41h-18.18s0-24.16,0-24.16c-.08-1.25-.17-2.34-.61-3.45-.48-2.06-5.46-1.85-8.27-1.43-2.23.33-2.91,2.88-2.89,5.35l.1,13.08c.03,3.7,1.94,7.04,3.95,10.08,2.07,3.13,4.55,5.7,7.03,8.52l11.07,12.58c3.2,3.63,7.72,11.31,7.71,15.91l-.07,26.21c-.01,4.93-3.4,15.01-9.13,15.94Z"/>
        <g>
          <polygon class="cls-1" points="713.11 177.74 694.88 177.78 694.88 70.11 683.77 70.03 683.77 51.8 724.23 51.8 724.23 70.03 713.1 70.07 713.11 177.74"/>
          <rect class="cls-1" x="729.32" y="51.78" width="18.21" height="125.98"/>
        </g>
        <g>
          <path class="cls-1" d="M321.71,159.26c0,5.07-1.59,11.61-4.74,15.49-1.1,1.35-2.71,2.95-4.64,2.95l-30.74.06c-2.48-.74-4.09-2.41-5.42-4.55-2.46-3.85-3.27-8.21-3.72-12.86l-.05-29.84h18.26s.03,23.99.03,23.99c.25,1.81.83,3.69,2.66,4.31,2.58.88,5.61.93,8.21,0,1.18-.42,1.87-2.08,1.87-3.3l.02-14.74c0-3.13-1.17-6-2.56-8.72-3.13-6.16-9.77-12.61-14.66-17.9-5.69-6.16-12.67-14.26-12.66-22.88v-20.99c0-5.26,1.35-10.26,4.23-14.58,1.29-1.93,3.29-3.84,5.74-3.85l27.34-.09c7.35-.02,10.8,11.58,10.86,18.52v28.84s-18.24,0-18.24,0v-24.16c-.04-1.23-.19-2.29-.58-3.39-.27-.79-.9-1.33-1.74-1.46-2.17-.33-4.32-.35-6.48-.03-2.25.33-2.96,2.79-2.95,5.22l.07,13.02c.03,6.34,6.08,13.39,10.32,18.06,7,7.7,19.53,19.91,19.54,30.2l.04,22.66Z"/>
          <path class="cls-1" d="M378.95,119.54c0,5.77-1.17,12.29-4.82,16.64-1.3,1.32-2.8,2.61-4.79,2.61l-22.7.04v38.94s-18.24,0-18.24,0V51.81s40.42,0,40.42,0c2.28,0,4.08,1.38,5.54,2.84,3.45,4,4.59,10.29,4.59,15.66v49.22ZM360.9,115.22v-38.49c0-2.04-.68-3.76-1.82-5.29-.81-.91-1.84-1.55-3.1-1.55h-9.34s0,52.35,0,52.35h9.37c1.36-.02,2.51-.83,3.23-1.91,1.06-1.48,1.66-3.05,1.66-5.11Z"/>
        </g>
      </g>
      <g>
        <path class="cls-2" d="M7.09,96.76c-.28-2.76-.56-5.52-.93-8.27-.22-1.58.03-2.89.75-4.13,0-.01,0-.02.01-.03.01-.02.02-.03.04-.05.07-.11.14-.22.21-.33.04-.06.08-.13.13-.18.04-.06.08-.12.12-.17,1.32-1.76,2.56-3.57,3.85-5.36.12-.16.28-.34.48-.53.01-.01.02-.02.04-.04,3.12-2.98,14.62-9.17,14.62-9.17,0,0,0,0,0,0-4.61.71-9.22,1.42-13.83,2.12-2.79.43-5.01,1.75-6.59,4.15-1.43,2.17-2.87,4.35-4.4,6.44C.43,82.75-.02,84.4,0,86.2c.3,1.08,1.09,2.01,2.34,3.93,1.74,2.67,3.8,5.4,4.74,6.63Z"/>
        <path class="cls-2" d="M142.41,36.16c-4.42,0-8.05,1.76-10.29,5.73-3.12,5.54-6.14,11.14-9.2,16.72-.18.34-.23.48-.55,1.06h123.75l28.25-23.55c-17.69,0-35.39,0-53.08,0-26.3,0-52.59,0-78.89.04Z"/>
        <path class="cls-1" d="M84.55,31.26c-1.16.35-1.96.58-2.74.84-12.13,4.08-24.26,8.19-36.41,12.24-2.61.87-4.69,2.36-6.24,4.62-2.03,2.97-4.07,5.94-6.11,8.91-.76,1.11-1.51,2.23-2.47,3.63,13.53-1.74,26.68-3.72,39.85-5.6,4.66-8.14,9.3-16.24,14.12-24.65Z"/>
        <path class="cls-2" d="M125.7,67.23c-4.88.02-8.6,2.02-10.93,6.47-2.39,4.53-4.94,8.98-7.36,13.49-.78,1.46-1.56,2.81-2.62,4.69h2.21c13.04.02,26.09.05,39.13.07,20.37.04,40.73.08,61.09.14l29.92-24.93c-24.87,0-49.72.03-74.58.05-12.28,0-24.57,0-36.86.03Z"/>
        <path class="cls-1" d="M20.35,81.49c-1.03,2.07-2.12,4.12-3.18,6.18-1.76,3.44-3.51,6.89-5.27,10.34,5.86-6.62,11.7-13.22,17.12-20.22-2.4.68-4.72,1.49-7.06,2.23-.79.25-1.25.74-1.61,1.46Z"/>
        <path class="cls-1" d="M24.25,132.35c1.66.29,2.16.67,2.92.08.75-.59-.13-1.47-1.76-2.12,1,.82,1.2,1.31.96,1.53-.24.22-.81-.03-1.76-.32-.95-.28-2.77-.37-4.3.19.28.08.86.26,1.48.63.04-.01.85-.28,2.46,0Z"/>
        <path class="cls-2" d="M267.02.08c-42.88-.03-85.74-.05-128.62-.08-4.98,0-9.91.56-14.7,2-10.99,3.28-20.02,9.21-25.82,19.39-6.1,10.71-12.13,21.46-18.19,32.19-1.46,2.57-2.9,5.14-4.29,7.6-8.09,1.17-16.01,2.29-23.92,3.48-8.36,1.26-16.72,2.55-25.09,3.83h0s-11.5,6.19-14.62,9.17c.55-.47,1.21-.73,2-.86,13.6-2.33,27.2-4.59,40.84-6.61l17.2-2.46c-6.87,12.4-13.61,24.72-20.39,36.97-4.8.76-9.54,1.24-14.27,1.75-7.28.79-14.55,1.52-21.83,2.34-4.46.51-6.93-1.2-7.51-5.63-.28-2.13-.5-4.26-.72-6.39-.95-1.23-3.01-3.97-4.75-6.64-1.25-1.91-2.04-2.85-2.34-3.92,0,.19.02.65.06,1.13.59,5.25,1.12,10.5,1.66,15.75.23,2.17.79,4.27,1.96,6.12,1.13,1.77,2.46,3.21,4.07,4.19,0,0,0,0,.02,0h0c2.9,1.92,7.13,1.64,7.13,1.64l.78-.15,16.8-2.07c.06,0,.13-.02.19-.03,14.23-1.58,28.48-3.13,42.7-4.78,5.9-.68,10.81-3.21,13.91-8.51,3.39-5.8,6.71-11.65,10.01-17.5,7.91-14.01,15.74-28.07,23.71-42.03,4.58-8,11.55-12.3,20.85-12.31,46.89-.05,93.79-.03,140.67,0L317.57.14c-16.85-.02-33.69-.04-50.54-.05Z"/>
        <path class="cls-1" d="M101.78,97.62c-.19.33-.42.7-.64,1.07-1.62,2.81-3.3,5.58-5.36,8.1-2.8,3.43-6.36,5.43-10.71,6.05-13.83,1.96-27.31,5.38-40.65,9.42-1.79.55-3.37.48-5.09-.26-4.66-2.03-9.41-3.81-14.33-5.16-3.07-.84-6.15-1.55-9.32-1.95l-.78.15c-.14.25-.26.5-.39.74-1.62,3.08-3.44,6.05-5.18,9.06-1.29,2.23-.73,4.31,1.48,5.64.65.38,1.36.72,2.07.94,2.14.67,4.3,1.25,6.44,1.91,3.5,1.1,3.77,1.57,3.1,5.18-.34,1.85-.72,3.67-1.09,5.52,1.2.96,2.46,1.3,3.82.61,1.47-.74,2.9-.55,4.42-.1,2.96.86,5.91,1.74,8.81,2.77.83.29,1.66.52,2.51.78l.13-1.14s.19.19.47.5c0,0,.02.02.02.02.61.67,1.63,1.86,2.06,2.74-6.13-1.19-12.11-2.31-18.26-.57-2.36,3.44-2.38,3.94,0,6.35,4.2-1.01,8,.52,11.73,2.47-3.21.2-6.43.25-9.13,2.36-.1,3.71-1.13,7.26-2.01,10.83-.55,2.21-.15,4.19,1.17,6.02,2.77,3.82,7.27,5.34,11.73,3.91,1.1-.35,2.19-.75,3.27-1.2,13.32-5.61,26.3-11.91,39.17-18.46,2.44-1.24,4.04-3.22,4.68-5.93,1.76-7.52,3.53-15.04,5.28-22.55.5-2.16.94-4.34,1.45-6.74-5.06.93-9.9,1.81-14.74,2.69l39.68-22.18-18.99,22.64-7.04,24.11h0c-.12.42-.25.84-.37,1.26-.57,2.02-1.46,3.71-2.68,5.14-.14.15-.27.31-.42.45-.05.05-.12.12-.18.18-1.53,1.51-3.07,2.26-3.07,2.26l-.86,2.02h.02c-2.97,6.92-5.55,13.98-7.85,21.15-.59,1.85-1.24,3.67-1.86,5.51l-4.14-12.65c-1.5-.25-2.9-.49-4.51-.76,2.88,8.14,5.58,16.12,7.38,24.55,19.07-13.63,37.98-27.12,56.92-40.66-.61-7.05-1.22-14.03-1.47-21.19-6.13,4.44-9.49,10.67-12.93,16.82l3.92-18.6c.17-.15.31-.28.47-.4,6.46-4.87,12.79-9.89,19.05-15.02,2.35-1.92,4.77-3.77,6.68-6.19.38-.47.74-.96,1.09-1.44,5.11-7.12,10.08-18.79,10.08-18.79h-55.04ZM30.49,132.45c-.52.55-1.14.83-1.86.98-1.56.33-3.17.41-4.75,1.02-1.25-.93-3.37-1.95-6.26-2.67-3.32-.83-6.08-2.45-6.08-2.45,6.15-.98,11.94-2.57,17.37.94,2.47-1.05,1.78-3.12,1.48-4.65,2.04,2.36,2.05,4.76.1,6.83Z"/>
      </g>
    </g>
  </g>
</svg>